<svg width="3357" height="1561" viewBox="0 0 3357 1561" fill="none" xmlns="http://www.w3.org/2000/svg">
<path d="M307.614 506.403V354.273H1024.38V506.403H757.188V1227H574.801V506.403H307.614Z" fill="#FF700A"/>
<path d="M961.474 879.327C933.42 879.327 909.273 873.645 889.031 862.281C868.908 850.799 853.402 834.582 842.511 813.631C831.621 792.561 826.176 767.643 826.176 738.879C826.176 710.825 831.621 686.204 842.511 665.016C853.402 643.827 868.731 627.314 888.499 615.477C908.385 603.64 931.704 597.722 958.456 597.722C976.448 597.722 993.198 600.622 1008.7 606.422C1024.33 612.104 1037.94 620.686 1049.54 632.168C1061.26 643.65 1070.38 658.091 1076.89 675.491C1083.4 692.774 1086.65 713.015 1086.65 736.216V756.99H856.361V710.115H1015.45C1015.45 699.225 1013.08 689.578 1008.35 681.173C1003.61 672.769 997.045 666.199 988.641 661.464C980.355 656.611 970.707 654.185 959.699 654.185C948.217 654.185 938.037 656.848 929.159 662.175C920.4 667.383 913.534 674.426 908.562 683.304C903.591 692.063 901.046 701.829 900.928 712.601V757.168C900.928 770.662 903.413 782.321 908.385 792.146C913.475 801.971 920.636 809.547 929.869 814.874C939.102 820.2 950.052 822.864 962.717 822.864C971.122 822.864 978.816 821.68 985.8 819.312C992.784 816.945 998.761 813.394 1003.73 808.659C1008.7 803.924 1012.49 798.124 1015.1 791.259L1085.05 795.875C1081.5 812.684 1074.22 827.362 1063.21 839.909C1052.32 852.338 1038.24 862.045 1020.96 869.028C1003.79 875.894 983.965 879.327 961.474 879.327ZM1136.01 601.273H1211.65V887.494C1211.65 908.564 1207.51 925.61 1199.22 938.631C1190.94 951.652 1179.04 961.18 1163.53 967.217C1148.15 973.254 1129.74 976.273 1108.31 976.273C1105.71 976.273 1103.22 976.214 1100.86 976.095C1098.37 976.095 1095.77 976.036 1093.04 975.918V916.791C1095.06 916.91 1096.83 916.969 1098.37 916.969C1099.79 917.087 1101.33 917.146 1102.99 917.146C1115.18 917.146 1123.7 914.542 1128.56 909.334C1133.53 904.244 1136.01 896.55 1136.01 886.251V601.273ZM1173.65 566.116C1162.53 566.116 1152.94 562.388 1144.89 554.93C1136.84 547.355 1132.82 538.299 1132.82 527.764C1132.82 517.348 1136.84 508.411 1144.89 500.953C1152.94 493.377 1162.53 489.589 1173.65 489.589C1185.02 489.589 1194.67 493.377 1202.6 500.953C1210.65 508.411 1214.67 517.348 1214.67 527.764C1214.67 538.299 1210.65 547.355 1202.6 554.93C1194.67 562.388 1185.02 566.116 1173.65 566.116ZM1395.47 879.327C1367.89 879.327 1344.04 873.467 1323.91 861.749C1303.91 849.911 1288.46 833.458 1277.57 812.388C1266.68 791.199 1261.23 766.637 1261.23 738.702C1261.23 710.529 1266.68 685.908 1277.57 664.838C1288.46 643.65 1303.91 627.196 1323.91 615.477C1344.04 603.64 1367.89 597.722 1395.47 597.722C1423.05 597.722 1446.84 603.64 1466.85 615.477C1486.97 627.196 1502.48 643.65 1513.37 664.838C1524.26 685.908 1529.7 710.529 1529.7 738.702C1529.7 766.637 1524.26 791.199 1513.37 812.388C1502.48 833.458 1486.97 849.911 1466.85 861.749C1446.84 873.467 1423.05 879.327 1395.47 879.327ZM1395.82 820.733C1408.37 820.733 1418.85 817.182 1427.25 810.08C1435.65 802.859 1441.99 793.034 1446.25 780.605C1450.63 768.176 1452.82 754.031 1452.82 738.169C1452.82 722.307 1450.63 708.162 1446.25 695.733C1441.99 683.304 1435.65 673.479 1427.25 666.259C1418.85 659.038 1408.37 655.428 1395.82 655.428C1383.16 655.428 1372.5 659.038 1363.86 666.259C1355.34 673.479 1348.89 683.304 1344.51 695.733C1340.25 708.162 1338.12 722.307 1338.12 738.169C1338.12 754.031 1340.25 768.176 1344.51 780.605C1348.89 793.034 1355.34 802.859 1363.86 810.08C1372.5 817.182 1383.16 820.733 1395.82 820.733ZM1578.88 874V601.273H1650.97V649.391H1654.17C1659.85 633.411 1669.32 620.804 1682.58 611.571C1695.83 602.338 1711.7 597.722 1730.16 597.722C1748.86 597.722 1764.79 602.397 1777.93 611.749C1791.06 620.982 1799.82 633.529 1804.2 649.391H1807.04C1812.61 633.766 1822.67 621.277 1837.23 611.926C1851.91 602.456 1869.25 597.722 1889.25 597.722C1914.7 597.722 1935.36 605.83 1951.22 622.047C1967.2 638.145 1975.19 660.991 1975.19 690.584V874H1899.73V705.499C1899.73 690.347 1895.7 678.983 1887.66 671.408C1879.61 663.832 1869.54 660.044 1857.47 660.044C1843.74 660.044 1833.03 664.424 1825.33 673.183C1817.64 681.824 1813.79 693.247 1813.79 707.452V874H1740.46V703.901C1740.46 690.525 1736.61 679.871 1728.92 671.94C1721.34 664.009 1711.34 660.044 1698.91 660.044C1690.51 660.044 1682.93 662.175 1676.19 666.436C1669.56 670.579 1664.29 676.438 1660.38 684.014C1656.48 691.472 1654.52 700.231 1654.52 710.293V874H1578.88ZM2112.71 879.149C2095.31 879.149 2079.8 876.131 2066.19 870.094C2052.58 863.938 2041.8 854.883 2033.87 842.928C2026.06 830.854 2022.15 815.821 2022.15 797.828C2022.15 782.677 2024.94 769.952 2030.5 759.653C2036.06 749.355 2043.64 741.069 2053.23 734.795C2062.81 728.522 2073.71 723.787 2085.9 720.591C2098.21 717.395 2111.11 715.146 2124.6 713.844C2140.47 712.187 2153.25 710.648 2162.96 709.227C2172.66 707.688 2179.71 705.439 2184.09 702.48C2188.47 699.521 2190.66 695.141 2190.66 689.341V688.276C2190.66 677.03 2187.1 668.33 2180 662.175C2173.02 656.019 2163.08 652.942 2150.17 652.942C2136.56 652.942 2125.73 655.96 2117.68 661.997C2109.63 667.916 2104.3 675.373 2101.7 684.369L2031.74 678.688C2035.29 662.116 2042.28 647.793 2052.69 635.719C2063.11 623.527 2076.55 614.175 2093 607.665C2109.57 601.036 2128.75 597.722 2150.53 597.722C2165.68 597.722 2180.18 599.497 2194.03 603.048C2208 606.599 2220.37 612.104 2231.14 619.561C2242.03 627.018 2250.61 636.607 2256.88 648.325C2263.16 659.926 2266.3 673.834 2266.3 690.051V874H2194.56V836.18H2192.43C2188.05 844.703 2182.19 852.22 2174.85 858.73C2167.51 865.122 2158.7 870.153 2148.4 873.822C2138.1 877.374 2126.2 879.149 2112.71 879.149ZM2134.37 826.947C2145.5 826.947 2155.32 824.758 2163.84 820.378C2172.37 815.88 2179.06 809.843 2183.91 802.267C2188.76 794.691 2191.19 786.109 2191.19 776.521V747.58C2188.82 749.118 2185.57 750.539 2181.42 751.841C2177.4 753.025 2172.84 754.149 2167.75 755.214C2162.66 756.161 2157.57 757.049 2152.48 757.878C2147.39 758.588 2142.77 759.239 2138.63 759.831C2129.75 761.133 2122 763.205 2115.37 766.045C2108.74 768.886 2103.59 772.733 2099.92 777.587C2096.25 782.321 2094.42 788.24 2094.42 795.342C2094.42 805.641 2098.15 813.512 2105.61 818.957C2113.18 824.284 2122.77 826.947 2134.37 826.947ZM2324.98 874V601.273H2398.31V648.858H2401.15C2406.12 631.931 2414.47 619.147 2426.19 610.506C2437.9 601.746 2451.4 597.366 2466.67 597.366C2470.46 597.366 2474.54 597.603 2478.92 598.077C2483.3 598.55 2487.15 599.201 2490.46 600.03V667.146C2486.91 666.081 2482 665.134 2475.72 664.305C2469.45 663.477 2463.71 663.062 2458.5 663.062C2447.37 663.062 2437.43 665.489 2428.67 670.342C2420.03 675.077 2413.16 681.706 2408.07 690.229C2403.1 698.751 2400.62 708.576 2400.62 719.703V874H2324.98ZM2639.74 981.955C2615.24 981.955 2594.23 978.581 2576.71 971.834C2559.31 965.205 2545.46 956.15 2535.16 944.668C2524.86 933.186 2518.17 920.283 2515.1 905.96L2585.05 896.55C2587.18 901.995 2590.56 907.085 2595.17 911.82C2599.79 916.554 2605.89 920.342 2613.46 923.183C2621.16 926.143 2630.51 927.622 2641.52 927.622C2657.97 927.622 2671.52 923.598 2682.18 915.548C2692.95 907.617 2698.34 894.301 2698.34 875.598V825.705H2695.14C2691.82 833.28 2686.85 840.442 2680.22 847.189C2673.6 853.936 2665.07 859.44 2654.66 863.702C2644.24 867.963 2631.81 870.094 2617.37 870.094C2596.89 870.094 2578.25 865.359 2561.44 855.889C2544.75 846.301 2531.43 831.682 2521.49 812.033C2511.66 792.265 2506.75 767.288 2506.75 737.104C2506.75 706.209 2511.78 680.404 2521.84 659.689C2531.91 638.974 2545.28 623.467 2561.97 613.169C2578.78 602.871 2597.19 597.722 2617.19 597.722C2632.46 597.722 2645.25 600.326 2655.54 605.534C2665.84 610.624 2674.13 617.016 2680.4 624.71C2686.79 632.286 2691.71 639.743 2695.14 647.082H2697.98V601.273H2773.09V876.663C2773.09 899.864 2767.4 919.277 2756.04 934.902C2744.68 950.527 2728.93 962.246 2708.81 970.058C2688.81 977.989 2665.78 981.955 2639.74 981.955ZM2641.34 813.276C2653.53 813.276 2663.83 810.257 2672.23 804.22C2680.76 798.065 2687.27 789.305 2691.77 777.942C2696.38 766.46 2698.69 752.729 2698.69 736.749C2698.69 720.768 2696.44 706.919 2691.94 695.2C2687.45 683.363 2680.93 674.189 2672.41 667.679C2663.89 661.169 2653.53 657.913 2641.34 657.913C2628.91 657.913 2618.43 661.287 2609.91 668.034C2601.39 674.663 2594.94 683.896 2590.56 695.733C2586.18 707.57 2583.99 721.242 2583.99 736.749C2583.99 752.492 2586.18 766.105 2590.56 777.587C2595.06 788.95 2601.51 797.769 2609.91 804.043C2618.43 810.198 2628.91 813.276 2641.34 813.276Z" fill="#FF700A"/>
<path d="M837.44 1227V968.818H1008.38V1013.82H892.026V1075.34H997.038V1120.35H892.026V1227H837.44ZM1117.37 1230.78C1097.79 1230.78 1080.85 1226.62 1066.56 1218.3C1052.36 1209.9 1041.39 1198.22 1033.66 1183.26C1025.93 1168.21 1022.06 1150.77 1022.06 1130.94C1022.06 1110.94 1025.93 1093.45 1033.66 1078.5C1041.39 1063.45 1052.36 1051.77 1066.56 1043.45C1080.85 1035.04 1097.79 1030.84 1117.37 1030.84C1136.95 1030.84 1153.84 1035.04 1168.05 1043.45C1182.33 1051.77 1193.34 1063.45 1201.08 1078.5C1208.81 1093.45 1212.67 1110.94 1212.67 1130.94C1212.67 1150.77 1208.81 1168.21 1201.08 1183.26C1193.34 1198.22 1182.33 1209.9 1168.05 1218.3C1153.84 1226.62 1136.95 1230.78 1117.37 1230.78ZM1117.62 1189.18C1126.53 1189.18 1133.97 1186.66 1139.93 1181.62C1145.9 1176.49 1150.4 1169.51 1153.42 1160.69C1156.53 1151.87 1158.09 1141.82 1158.09 1130.56C1158.09 1119.3 1156.53 1109.25 1153.42 1100.43C1150.4 1091.61 1145.9 1084.63 1139.93 1079.5C1133.97 1074.38 1126.53 1071.81 1117.62 1071.81C1108.63 1071.81 1101.06 1074.38 1094.93 1079.5C1088.88 1084.63 1084.3 1091.61 1081.19 1100.43C1078.16 1109.25 1076.65 1119.3 1076.65 1130.56C1076.65 1141.82 1078.16 1151.87 1081.19 1160.69C1084.3 1169.51 1088.88 1176.49 1094.93 1181.62C1101.06 1186.66 1108.63 1189.18 1117.62 1189.18ZM1371.77 1144.55V1033.36H1425.47V1227H1373.91V1191.83H1371.89C1367.52 1203.17 1360.25 1212.29 1350.08 1219.18C1340 1226.08 1327.69 1229.52 1313.15 1229.52C1300.2 1229.52 1288.82 1226.58 1278.98 1220.7C1269.15 1214.81 1261.46 1206.45 1255.91 1195.61C1250.45 1184.77 1247.68 1171.78 1247.59 1156.66V1033.36H1301.3V1147.07C1301.38 1158.5 1304.45 1167.54 1310.5 1174.18C1316.55 1180.82 1324.66 1184.14 1334.83 1184.14C1341.3 1184.14 1347.35 1182.67 1352.98 1179.73C1358.61 1176.7 1363.15 1172.25 1366.6 1166.36C1370.13 1160.48 1371.85 1153.21 1371.77 1144.55ZM1522.13 1115.05V1227H1468.43V1033.36H1519.61V1067.53H1521.88C1526.17 1056.27 1533.35 1047.36 1543.44 1040.8C1553.52 1034.16 1565.75 1030.84 1580.12 1030.84C1593.57 1030.84 1605.29 1033.78 1615.29 1039.67C1625.3 1045.55 1633.07 1053.95 1638.62 1064.88C1644.16 1075.72 1646.94 1088.66 1646.94 1103.71V1227H1593.23V1113.29C1593.32 1101.44 1590.29 1092.19 1584.16 1085.55C1578.02 1078.83 1569.57 1075.47 1558.82 1075.47C1551.59 1075.47 1545.2 1077.02 1539.66 1080.13C1534.19 1083.24 1529.91 1087.78 1526.8 1093.75C1523.77 1099.63 1522.22 1106.73 1522.13 1115.05ZM1760.62 1230.15C1745.91 1230.15 1732.59 1226.37 1720.65 1218.81C1708.8 1211.16 1699.39 1199.94 1692.41 1185.15C1685.52 1170.27 1682.08 1152.03 1682.08 1130.43C1682.08 1108.25 1685.65 1089.8 1692.79 1075.09C1699.94 1060.3 1709.43 1049.25 1721.28 1041.94C1733.22 1034.54 1746.29 1030.84 1760.49 1030.84C1771.33 1030.84 1780.37 1032.69 1787.59 1036.39C1794.91 1040 1800.79 1044.54 1805.24 1050C1809.78 1055.38 1813.23 1060.68 1815.58 1065.89H1817.22V968.818H1870.8V1227H1817.85V1195.99H1815.58C1813.06 1201.37 1809.49 1206.7 1804.87 1212C1800.33 1217.21 1794.4 1221.54 1787.09 1224.98C1779.86 1228.43 1771.04 1230.15 1760.62 1230.15ZM1777.63 1187.42C1786.29 1187.42 1793.6 1185.06 1799.57 1180.36C1805.62 1175.57 1810.24 1168.88 1813.44 1160.31C1816.72 1151.74 1818.35 1141.7 1818.35 1130.18C1818.35 1118.67 1816.76 1108.67 1813.56 1100.18C1810.37 1091.69 1805.75 1085.13 1799.7 1080.51C1793.65 1075.89 1786.29 1073.58 1777.63 1073.58C1768.81 1073.58 1761.37 1075.97 1755.32 1080.76C1749.27 1085.55 1744.69 1092.19 1741.58 1100.68C1738.47 1109.17 1736.92 1119 1736.92 1130.18C1736.92 1141.44 1738.47 1151.4 1741.58 1160.06C1744.77 1168.63 1749.35 1175.36 1755.32 1180.23C1761.37 1185.02 1768.81 1187.42 1777.63 1187.42ZM1970.17 1230.66C1957.81 1230.66 1946.8 1228.51 1937.14 1224.23C1927.47 1219.86 1919.83 1213.43 1914.2 1204.94C1908.65 1196.37 1905.87 1185.69 1905.87 1172.92C1905.87 1162.16 1907.85 1153.13 1911.8 1145.81C1915.75 1138.5 1921.13 1132.62 1927.94 1128.16C1934.74 1123.71 1942.48 1120.35 1951.13 1118.08C1959.87 1115.81 1969.03 1114.21 1978.61 1113.29C1989.88 1112.11 1998.95 1111.02 2005.84 1110.01C2012.74 1108.92 2017.74 1107.32 2020.85 1105.22C2023.96 1103.12 2025.51 1100.01 2025.51 1095.89V1095.14C2025.51 1087.15 2022.99 1080.97 2017.95 1076.6C2012.99 1072.23 2005.93 1070.05 1996.77 1070.05C1987.1 1070.05 1979.41 1072.19 1973.7 1076.48C1967.98 1080.68 1964.2 1085.97 1962.35 1092.36L1912.68 1088.33C1915.2 1076.56 1920.16 1066.39 1927.56 1057.82C1934.95 1049.16 1944.49 1042.52 1956.17 1037.9C1967.94 1033.2 1981.56 1030.84 1997.02 1030.84C2007.78 1030.84 2018.07 1032.1 2027.91 1034.62C2037.82 1037.15 2046.61 1041.05 2054.25 1046.35C2061.99 1051.64 2068.08 1058.45 2072.53 1066.77C2076.99 1075.01 2079.21 1084.88 2079.21 1096.4V1227H2028.28V1200.15H2026.77C2023.66 1206.2 2019.5 1211.54 2014.29 1216.16C2009.08 1220.7 2002.82 1224.27 1995.51 1226.87C1988.2 1229.4 1979.75 1230.66 1970.17 1230.66ZM1985.55 1193.59C1993.45 1193.59 2000.42 1192.04 2006.48 1188.93C2012.53 1185.73 2017.27 1181.45 2020.72 1176.07C2024.17 1170.69 2025.89 1164.6 2025.89 1157.79V1137.24C2024.21 1138.33 2021.9 1139.34 2018.96 1140.27C2016.1 1141.11 2012.86 1141.91 2009.25 1142.66C2005.63 1143.33 2002.02 1143.96 1998.41 1144.55C1994.79 1145.06 1991.52 1145.52 1988.57 1145.94C1982.27 1146.86 1976.77 1148.34 1972.06 1150.35C1967.35 1152.37 1963.7 1155.1 1961.09 1158.55C1958.49 1161.91 1957.18 1166.11 1957.18 1171.15C1957.18 1178.46 1959.83 1184.05 1965.13 1187.92C1970.5 1191.7 1977.31 1193.59 1985.55 1193.59ZM2223.87 1033.36V1073.7H2107.26V1033.36H2223.87ZM2133.74 986.972H2187.44V1167.5C2187.44 1172.46 2188.2 1176.32 2189.71 1179.1C2191.22 1181.78 2193.32 1183.68 2196.01 1184.77C2198.79 1185.86 2201.98 1186.41 2205.6 1186.41C2208.12 1186.41 2210.64 1186.2 2213.16 1185.78C2215.68 1185.27 2217.61 1184.89 2218.96 1184.64L2227.4 1224.6C2224.72 1225.45 2220.93 1226.41 2216.06 1227.5C2211.18 1228.68 2205.26 1229.4 2198.28 1229.65C2185.34 1230.15 2173.99 1228.43 2164.25 1224.48C2154.58 1220.53 2147.06 1214.39 2141.68 1206.07C2136.3 1197.75 2133.65 1187.25 2133.74 1174.56V986.972ZM2258.86 1227V1033.36H2312.56V1227H2258.86ZM2285.84 1008.4C2277.85 1008.4 2271 1005.76 2265.29 1000.46C2259.66 995.082 2256.84 988.652 2256.84 981.173C2256.84 973.777 2259.66 967.431 2265.29 962.137C2271 956.758 2277.85 954.069 2285.84 954.069C2293.82 954.069 2300.63 956.758 2306.26 962.137C2311.97 967.431 2314.83 973.777 2314.83 981.173C2314.83 988.652 2311.97 995.082 2306.26 1000.46C2300.63 1005.76 2293.82 1008.4 2285.84 1008.4ZM2443.07 1230.78C2423.49 1230.78 2406.55 1226.62 2392.27 1218.3C2378.06 1209.9 2367.1 1198.22 2359.36 1183.26C2351.63 1168.21 2347.77 1150.77 2347.77 1130.94C2347.77 1110.94 2351.63 1093.45 2359.36 1078.5C2367.1 1063.45 2378.06 1051.77 2392.27 1043.45C2406.55 1035.04 2423.49 1030.84 2443.07 1030.84C2462.65 1030.84 2479.55 1035.04 2493.75 1043.45C2508.04 1051.77 2519.05 1063.45 2526.78 1078.5C2534.51 1093.45 2538.38 1110.94 2538.38 1130.94C2538.38 1150.77 2534.51 1168.21 2526.78 1183.26C2519.05 1198.22 2508.04 1209.9 2493.75 1218.3C2479.55 1226.62 2462.65 1230.78 2443.07 1230.78ZM2443.32 1189.18C2452.23 1189.18 2459.67 1186.66 2465.64 1181.62C2471.6 1176.49 2476.1 1169.51 2479.13 1160.69C2482.24 1151.87 2483.79 1141.82 2483.79 1130.56C2483.79 1119.3 2482.24 1109.25 2479.13 1100.43C2476.1 1091.61 2471.6 1084.63 2465.64 1079.5C2459.67 1074.38 2452.23 1071.81 2443.32 1071.81C2434.33 1071.81 2426.77 1074.38 2420.63 1079.5C2414.58 1084.63 2410 1091.61 2406.89 1100.43C2403.86 1109.25 2402.35 1119.3 2402.35 1130.56C2402.35 1141.82 2403.86 1151.87 2406.89 1160.69C2410 1169.51 2414.58 1176.49 2420.63 1181.62C2426.77 1186.66 2434.33 1189.18 2443.32 1189.18ZM2627 1115.05V1227H2573.3V1033.36H2624.48V1067.53H2626.75C2631.03 1056.27 2638.22 1047.36 2648.31 1040.8C2658.39 1034.16 2670.62 1030.84 2684.99 1030.84C2698.44 1030.84 2710.16 1033.78 2720.16 1039.67C2730.16 1045.55 2737.94 1053.95 2743.48 1064.88C2749.03 1075.72 2751.8 1088.66 2751.8 1103.71V1227H2698.1V1113.29C2698.19 1101.44 2695.16 1092.19 2689.02 1085.55C2682.89 1078.83 2674.44 1075.47 2663.69 1075.47C2656.46 1075.47 2650.07 1077.02 2644.52 1080.13C2639.06 1083.24 2634.77 1087.78 2631.66 1093.75C2628.64 1099.63 2627.08 1106.73 2627 1115.05Z" fill="#787878"/>
</svg>
