<svg width="2540" height="877" viewBox="0 0 2540 877" fill="none" xmlns="http://www.w3.org/2000/svg">
<path d="M42.6136 152.131V0.000240326H759.375V152.131H492.188V872.728H309.801V152.131H42.6136Z" fill="#FF700A"/>
<path d="M675.474 532.054C647.42 532.054 623.273 526.372 603.031 515.009C582.908 503.527 567.402 487.31 556.511 466.358C545.621 445.288 540.176 420.371 540.176 391.607C540.176 363.553 545.621 338.932 556.511 317.743C567.402 296.555 582.731 280.042 602.499 268.205C622.385 256.368 645.704 250.449 672.456 250.449C690.448 250.449 707.198 253.349 722.705 259.149C738.33 264.831 751.942 273.413 763.543 284.895C775.261 296.377 784.376 310.818 790.886 328.219C797.397 345.501 800.652 365.743 800.652 388.943V409.718H570.361V362.843H729.452C729.452 351.952 727.084 342.305 722.349 333.901C717.615 325.496 711.045 318.927 702.641 314.192C694.355 309.339 684.707 306.912 673.699 306.912C662.217 306.912 652.037 309.576 643.159 314.902C634.4 320.111 627.534 327.154 622.562 336.032C617.591 344.791 615.046 354.557 614.928 365.328V409.895C614.928 423.389 617.413 435.049 622.385 444.874C627.475 454.699 634.636 462.274 643.869 467.601C653.102 472.928 664.052 475.591 676.717 475.591C685.122 475.591 692.816 474.407 699.8 472.04C706.784 469.673 712.761 466.121 717.733 461.387C722.705 456.652 726.492 450.852 729.097 443.986L799.054 448.603C795.503 465.411 788.223 480.089 777.214 492.637C766.324 505.066 752.238 514.772 734.956 521.756C717.792 528.621 697.965 532.054 675.474 532.054ZM850.013 254H925.652V540.222C925.652 561.292 921.509 578.337 913.223 591.358C904.937 604.379 893.041 613.908 877.534 619.945C862.146 625.982 843.739 629 822.314 629C819.71 629 817.224 628.941 814.857 628.823C812.371 628.823 809.767 628.764 807.044 628.645V569.519C809.056 569.637 810.832 569.696 812.371 569.696C813.791 569.815 815.33 569.874 816.987 569.874C829.179 569.874 837.702 567.27 842.555 562.061C847.527 556.971 850.013 549.277 850.013 538.979V254ZM887.655 218.844C876.528 218.844 866.94 215.115 858.891 207.658C850.841 200.082 846.817 191.027 846.817 180.492C846.817 170.075 850.841 161.138 858.891 153.681C866.94 146.105 876.528 142.317 887.655 142.317C899.018 142.317 908.666 146.105 916.597 153.681C924.646 161.138 928.67 170.075 928.67 180.492C928.67 191.027 924.646 200.082 916.597 207.658C908.666 215.115 899.018 218.844 887.655 218.844ZM1109.47 532.054C1081.89 532.054 1058.04 526.195 1037.91 514.476C1017.91 502.639 1002.46 486.185 991.57 465.115C980.68 443.927 975.235 419.365 975.235 391.429C975.235 363.257 980.68 338.636 991.57 317.566C1002.46 296.377 1017.91 279.924 1037.91 268.205C1058.04 256.368 1081.89 250.449 1109.47 250.449C1137.05 250.449 1160.84 256.368 1180.85 268.205C1200.97 279.924 1216.48 296.377 1227.37 317.566C1238.26 338.636 1243.7 363.257 1243.7 391.429C1243.7 419.365 1238.26 443.927 1227.37 465.115C1216.48 486.185 1200.97 502.639 1180.85 514.476C1160.84 526.195 1137.05 532.054 1109.47 532.054ZM1109.82 473.46C1122.37 473.46 1132.85 469.909 1141.25 462.807C1149.65 455.586 1155.99 445.762 1160.25 433.333C1164.63 420.904 1166.82 406.758 1166.82 390.897C1166.82 375.035 1164.63 360.889 1160.25 348.46C1155.99 336.032 1149.65 326.207 1141.25 318.986C1132.85 311.765 1122.37 308.155 1109.82 308.155C1097.16 308.155 1086.5 311.765 1077.86 318.986C1069.34 326.207 1062.89 336.032 1058.51 348.46C1054.25 360.889 1052.12 375.035 1052.12 390.897C1052.12 406.758 1054.25 420.904 1058.51 433.333C1062.89 445.762 1069.34 455.586 1077.86 462.807C1086.5 469.909 1097.16 473.46 1109.82 473.46ZM1292.88 526.728V254H1364.97V302.118H1368.17C1373.85 286.138 1383.32 273.532 1396.58 264.299C1409.83 255.066 1425.7 250.449 1444.16 250.449C1462.86 250.449 1478.79 255.125 1491.93 264.476C1505.06 273.709 1513.82 286.256 1518.2 302.118H1521.04C1526.61 286.493 1536.67 274.005 1551.23 264.654C1565.91 255.184 1583.25 250.449 1603.25 250.449C1628.7 250.449 1649.36 258.558 1665.22 274.774C1681.2 290.873 1689.19 313.719 1689.19 343.311V526.728H1613.73V358.226C1613.73 343.075 1609.7 331.711 1601.66 324.135C1593.61 316.559 1583.54 312.772 1571.47 312.772C1557.74 312.772 1547.03 317.151 1539.33 325.911C1531.64 334.552 1527.79 345.975 1527.79 360.179V526.728H1454.46V356.628C1454.46 343.252 1450.61 332.599 1442.92 324.668C1435.34 316.737 1425.34 312.772 1412.91 312.772C1404.51 312.772 1396.93 314.902 1390.19 319.164C1383.56 323.307 1378.29 329.166 1374.38 336.742C1370.48 344.199 1368.52 352.959 1368.52 363.02V526.728H1292.88ZM1826.71 531.877C1809.31 531.877 1793.8 528.858 1780.19 522.821C1766.58 516.666 1755.8 507.611 1747.87 495.655C1740.06 483.581 1736.15 468.548 1736.15 450.556C1736.15 435.404 1738.94 422.679 1744.5 412.381C1750.06 402.083 1757.64 393.797 1767.23 387.523C1776.81 381.249 1787.71 376.514 1799.9 373.318C1812.21 370.122 1825.11 367.873 1838.6 366.571C1854.47 364.914 1867.25 363.375 1876.96 361.955C1886.66 360.416 1893.71 358.167 1898.09 355.208C1902.47 352.248 1904.66 347.869 1904.66 342.068V341.003C1904.66 329.758 1901.1 321.058 1894 314.902C1887.02 308.747 1877.08 305.669 1864.17 305.669C1850.56 305.669 1839.73 308.688 1831.68 314.725C1823.63 320.643 1818.3 328.101 1815.7 337.097L1745.74 331.415C1749.29 314.843 1756.28 300.52 1766.69 288.446C1777.11 276.254 1790.55 266.903 1807 260.392C1823.57 253.764 1842.75 250.449 1864.53 250.449C1879.68 250.449 1894.18 252.225 1908.03 255.776C1922 259.327 1934.37 264.831 1945.14 272.289C1956.03 279.746 1964.61 289.334 1970.88 301.053C1977.16 312.653 1980.3 326.562 1980.3 342.779V526.728H1908.56V488.908H1906.43C1902.05 497.431 1896.19 504.947 1888.85 511.458C1881.51 517.85 1872.7 522.88 1862.4 526.55C1852.1 530.101 1840.2 531.877 1826.71 531.877ZM1848.37 479.675C1859.5 479.675 1869.32 477.485 1877.84 473.105C1886.37 468.607 1893.06 462.57 1897.91 454.995C1902.76 447.419 1905.19 438.837 1905.19 429.249V400.307C1902.82 401.846 1899.57 403.266 1895.42 404.568C1891.4 405.752 1886.84 406.877 1881.75 407.942C1876.66 408.889 1871.57 409.777 1866.48 410.605C1861.39 411.316 1856.77 411.967 1852.63 412.559C1843.75 413.861 1836 415.932 1829.37 418.773C1822.74 421.614 1817.59 425.461 1813.92 430.314C1810.25 435.049 1808.42 440.968 1808.42 448.07C1808.42 458.368 1812.15 466.24 1819.61 471.685C1827.18 477.012 1836.77 479.675 1848.37 479.675ZM2038.98 526.728V254H2112.31V301.585H2115.15C2120.12 284.658 2128.47 271.874 2140.19 263.233C2151.9 254.474 2165.4 250.094 2180.67 250.094C2184.46 250.094 2188.54 250.331 2192.92 250.804C2197.3 251.278 2201.15 251.929 2204.46 252.757V319.874C2200.91 318.808 2196 317.862 2189.72 317.033C2183.45 316.204 2177.71 315.79 2172.5 315.79C2161.37 315.79 2151.43 318.217 2142.67 323.07C2134.03 327.805 2127.16 334.433 2122.07 342.956C2117.1 351.479 2114.62 361.304 2114.62 372.431V526.728H2038.98ZM2353.74 634.682C2329.24 634.682 2308.23 631.309 2290.71 624.561C2273.31 617.933 2259.46 608.877 2249.16 597.395C2238.86 585.913 2232.17 573.011 2229.1 558.688L2299.05 549.277C2301.18 554.722 2304.56 559.812 2309.17 564.547C2313.79 569.282 2319.89 573.07 2327.46 575.911C2335.16 578.87 2344.51 580.35 2355.52 580.35C2371.97 580.35 2385.52 576.325 2396.18 568.276C2406.95 560.345 2412.34 547.028 2412.34 528.326V478.432H2409.14C2405.82 486.008 2400.85 493.169 2394.22 499.916C2387.6 506.664 2379.07 512.168 2368.66 516.429C2358.24 520.691 2345.81 522.821 2331.37 522.821C2310.89 522.821 2292.25 518.086 2275.44 508.617C2258.75 499.029 2245.43 484.41 2235.49 464.76C2225.66 444.992 2220.75 420.016 2220.75 389.831C2220.75 358.936 2225.78 333.131 2235.84 312.416C2245.91 291.701 2259.28 276.195 2275.97 265.897C2292.78 255.598 2311.19 250.449 2331.19 250.449C2346.46 250.449 2359.25 253.053 2369.54 258.262C2379.84 263.352 2388.13 269.744 2394.4 277.438C2400.79 285.014 2405.71 292.471 2409.14 299.81H2411.98V254H2487.09V529.391C2487.09 552.592 2481.4 572.005 2470.04 587.63C2458.68 603.255 2442.93 614.973 2422.81 622.786C2402.81 630.717 2379.78 634.682 2353.74 634.682ZM2355.34 466.003C2367.53 466.003 2377.83 462.985 2386.23 456.948C2394.76 450.792 2401.27 442.033 2405.77 430.669C2410.38 419.187 2412.69 405.456 2412.69 389.476C2412.69 373.496 2410.44 359.647 2405.94 347.928C2401.45 336.091 2394.93 326.917 2386.41 320.407C2377.89 313.896 2367.53 310.641 2355.34 310.641C2342.91 310.641 2332.43 314.014 2323.91 320.762C2315.39 327.39 2308.94 336.623 2304.56 348.46C2300.18 360.298 2297.99 373.969 2297.99 389.476C2297.99 405.219 2300.18 418.832 2304.56 430.314C2309.06 441.678 2315.51 450.496 2323.91 456.77C2332.43 462.925 2342.91 466.003 2355.34 466.003Z" fill="#FF700A"/>
<path d="M543.44 872.728V614.546H714.384V659.551H598.026V721.071H703.038V766.076H598.026V872.728H543.44ZM823.368 876.509C803.786 876.509 786.851 872.349 772.563 864.029C758.36 855.625 747.392 843.943 739.66 828.983C731.928 813.939 728.062 796.5 728.062 776.666C728.062 756.663 731.928 739.182 739.66 724.223C747.392 709.179 758.36 697.497 772.563 689.176C786.851 680.772 803.786 676.57 823.368 676.57C842.95 676.57 859.843 680.772 874.046 689.176C888.333 697.497 899.343 709.179 907.075 724.223C914.807 739.182 918.673 756.663 918.673 776.666C918.673 796.5 914.807 813.939 907.075 828.983C899.343 843.943 888.333 855.625 874.046 864.029C859.843 872.349 842.95 876.509 823.368 876.509ZM823.62 834.908C832.528 834.908 839.966 832.387 845.933 827.344C851.901 822.217 856.397 815.242 859.422 806.417C862.532 797.593 864.087 787.549 864.087 776.288C864.087 765.026 862.532 754.983 859.422 746.158C856.397 737.333 851.901 730.358 845.933 725.231C839.966 720.104 832.528 717.541 823.62 717.541C814.627 717.541 807.063 720.104 800.928 725.231C794.877 730.358 790.297 737.333 787.187 746.158C784.161 754.983 782.649 765.026 782.649 776.288C782.649 787.549 784.161 797.593 787.187 806.417C790.297 815.242 794.877 822.217 800.928 827.344C807.063 832.387 814.627 834.908 823.62 834.908ZM1077.77 790.281V679.091H1131.47V872.728H1079.91V837.555H1077.89C1073.52 848.901 1066.25 858.02 1056.08 864.911C1046 871.803 1033.69 875.249 1019.15 875.249C1006.2 875.249 994.817 872.307 984.983 866.424C975.15 860.541 967.46 852.179 961.914 841.337C956.451 830.496 953.677 817.511 953.593 802.383V679.091H1007.3V792.802C1007.38 804.232 1010.45 813.267 1016.5 819.906C1022.55 826.546 1030.66 829.865 1040.83 829.865C1047.3 829.865 1053.35 828.395 1058.98 825.453C1064.61 822.427 1069.15 817.973 1072.6 812.09C1076.13 806.207 1077.85 798.937 1077.77 790.281ZM1228.13 760.782V872.728H1174.43V679.091H1225.61V713.255H1227.88C1232.17 701.993 1239.35 693.084 1249.44 686.529C1259.52 679.89 1271.75 676.57 1286.12 676.57C1299.57 676.57 1311.29 679.511 1321.29 685.394C1331.3 691.277 1339.07 699.682 1344.62 710.608C1350.16 721.449 1352.94 734.392 1352.94 749.436V872.728H1299.23V759.017C1299.32 747.166 1296.29 737.922 1290.16 731.282C1284.02 724.559 1275.57 721.197 1264.82 721.197C1257.59 721.197 1251.2 722.752 1245.66 725.861C1240.19 728.971 1235.91 733.509 1232.8 739.476C1229.77 745.36 1228.22 752.461 1228.13 760.782ZM1466.62 875.879C1451.91 875.879 1438.59 872.097 1426.65 864.533C1414.8 856.885 1405.39 845.666 1398.41 830.874C1391.52 815.998 1388.08 797.761 1388.08 776.161C1388.08 753.974 1391.65 735.526 1398.79 720.819C1405.94 706.027 1415.43 694.975 1427.28 687.664C1439.22 680.268 1452.29 676.57 1466.49 676.57C1477.33 676.57 1486.37 678.419 1493.59 682.117C1500.91 685.731 1506.79 690.269 1511.24 695.732C1515.78 701.111 1519.23 706.405 1521.58 711.616H1523.22V614.546H1576.8V872.728H1523.85V841.715H1521.58C1519.06 847.094 1515.49 852.431 1510.87 857.726C1506.33 862.936 1500.4 867.265 1493.09 870.71C1485.86 874.156 1477.04 875.879 1466.62 875.879ZM1483.63 833.143C1492.29 833.143 1499.6 830.79 1505.57 826.083C1511.62 821.293 1516.24 814.611 1519.44 806.039C1522.72 797.467 1524.35 787.423 1524.35 775.909C1524.35 764.395 1522.76 754.394 1519.56 745.906C1516.37 737.417 1511.75 730.862 1505.7 726.24C1499.65 721.617 1492.29 719.306 1483.63 719.306C1474.81 719.306 1467.37 721.701 1461.32 726.492C1455.27 731.282 1450.69 737.922 1447.58 746.41C1444.47 754.898 1442.92 764.732 1442.92 775.909C1442.92 787.171 1444.47 797.13 1447.58 805.787C1450.77 814.359 1455.35 821.083 1461.32 825.957C1467.37 830.748 1474.81 833.143 1483.63 833.143ZM1676.17 876.383C1663.81 876.383 1652.8 874.24 1643.14 869.954C1633.47 865.584 1625.83 859.155 1620.2 850.666C1614.65 842.094 1611.87 831.42 1611.87 818.646C1611.87 807.888 1613.85 798.853 1617.8 791.541C1621.75 784.23 1627.13 778.347 1633.94 773.892C1640.74 769.438 1648.48 766.076 1657.13 763.807C1665.87 761.538 1675.03 759.941 1684.61 759.017C1695.88 757.84 1704.95 756.747 1711.84 755.739C1718.74 754.646 1723.74 753.05 1726.85 750.948C1729.96 748.847 1731.51 745.738 1731.51 741.62V740.863C1731.51 732.879 1728.99 726.702 1723.95 722.332C1718.99 717.961 1711.93 715.776 1702.77 715.776C1693.1 715.776 1685.41 717.919 1679.7 722.206C1673.98 726.408 1670.2 731.702 1668.35 738.09L1618.68 734.056C1621.2 722.29 1626.16 712.12 1633.56 703.548C1640.95 694.891 1650.49 688.252 1662.17 683.63C1673.94 678.923 1687.56 676.57 1703.02 676.57C1713.78 676.57 1724.07 677.831 1733.91 680.352C1743.82 682.873 1752.61 686.781 1760.25 692.076C1767.99 697.371 1774.08 704.178 1778.53 712.498C1782.99 720.735 1785.21 730.61 1785.21 742.124V872.728H1734.28V845.876H1732.77C1729.66 851.927 1725.5 857.264 1720.29 861.886C1715.08 866.424 1708.82 869.996 1701.51 872.601C1694.2 875.123 1685.75 876.383 1676.17 876.383ZM1691.55 839.32C1699.45 839.32 1706.42 837.765 1712.48 834.656C1718.53 831.462 1723.27 827.176 1726.72 821.797C1730.17 816.418 1731.89 810.325 1731.89 803.518V782.969C1730.21 784.062 1727.9 785.07 1724.96 785.995C1722.1 786.835 1718.86 787.633 1715.25 788.39C1711.63 789.062 1708.02 789.692 1704.41 790.281C1700.79 790.785 1697.52 791.247 1694.57 791.668C1688.27 792.592 1682.77 794.063 1678.06 796.08C1673.35 798.097 1669.7 800.828 1667.09 804.274C1664.49 807.636 1663.18 811.838 1663.18 816.881C1663.18 824.192 1665.83 829.781 1671.13 833.647C1676.5 837.429 1683.31 839.32 1691.55 839.32ZM1929.87 679.091V719.432H1813.26V679.091H1929.87ZM1839.74 632.699H1893.44V813.225C1893.44 818.183 1894.2 822.049 1895.71 824.823C1897.22 827.512 1899.32 829.403 1902.01 830.496C1904.79 831.588 1907.98 832.134 1911.6 832.134C1914.12 832.134 1916.64 831.924 1919.16 831.504C1921.68 831 1923.61 830.622 1924.96 830.37L1933.4 870.332C1930.72 871.173 1926.93 872.139 1922.06 873.232C1917.18 874.408 1911.26 875.123 1904.28 875.375C1891.34 875.879 1879.99 874.156 1870.25 870.206C1860.58 866.256 1853.06 860.121 1847.68 851.801C1842.3 843.48 1839.65 832.975 1839.74 820.284V632.699ZM1964.86 872.728V679.091H2018.56V872.728H1964.86ZM1991.84 654.13C1983.85 654.13 1977 651.483 1971.29 646.188C1965.66 640.809 1962.84 634.38 1962.84 626.9C1962.84 619.504 1965.66 613.159 1971.29 607.864C1977 602.485 1983.85 599.796 1991.84 599.796C1999.82 599.796 2006.63 602.485 2012.26 607.864C2017.97 613.159 2020.83 619.504 2020.83 626.9C2020.83 634.38 2017.97 640.809 2012.26 646.188C2006.63 651.483 1999.82 654.13 1991.84 654.13ZM2149.07 876.509C2129.49 876.509 2112.55 872.349 2098.27 864.029C2084.06 855.625 2073.1 843.943 2065.36 828.983C2057.63 813.939 2053.77 796.5 2053.77 776.666C2053.77 756.663 2057.63 739.182 2065.36 724.223C2073.1 709.179 2084.06 697.497 2098.27 689.176C2112.55 680.772 2129.49 676.57 2149.07 676.57C2168.65 676.57 2185.55 680.772 2199.75 689.176C2214.04 697.497 2225.05 709.179 2232.78 724.223C2240.51 739.182 2244.38 756.663 2244.38 776.666C2244.38 796.5 2240.51 813.939 2232.78 828.983C2225.05 843.943 2214.04 855.625 2199.75 864.029C2185.55 872.349 2168.65 876.509 2149.07 876.509ZM2149.32 834.908C2158.23 834.908 2165.67 832.387 2171.64 827.344C2177.6 822.217 2182.1 815.242 2185.13 806.417C2188.24 797.593 2189.79 787.549 2189.79 776.288C2189.79 765.026 2188.24 754.983 2185.13 746.158C2182.1 737.333 2177.6 730.358 2171.64 725.231C2165.67 720.104 2158.23 717.541 2149.32 717.541C2140.33 717.541 2132.77 720.104 2126.63 725.231C2120.58 730.358 2116 737.333 2112.89 746.158C2109.86 754.983 2108.35 765.026 2108.35 776.288C2108.35 787.549 2109.86 797.593 2112.89 806.417C2116 815.242 2120.58 822.217 2126.63 827.344C2132.77 832.387 2140.33 834.908 2149.32 834.908ZM2333 760.782V872.728H2279.3V679.091H2330.48V713.255H2332.75C2337.03 701.993 2344.22 693.084 2354.31 686.529C2364.39 679.89 2376.62 676.57 2390.99 676.57C2404.44 676.57 2416.16 679.511 2426.16 685.394C2436.16 691.277 2443.94 699.682 2449.48 710.608C2455.03 721.449 2457.8 734.392 2457.8 749.436V872.728H2404.1V759.017C2404.19 747.166 2401.16 737.922 2395.02 731.282C2388.89 724.559 2380.44 721.197 2369.69 721.197C2362.46 721.197 2356.07 722.752 2350.52 725.861C2345.06 728.971 2340.77 733.509 2337.66 739.476C2334.64 745.36 2333.08 752.461 2333 760.782Z" fill="#787878"/>
</svg>
